<svg width="40" height="40" viewBox="0 0 40 40" fill="none" xmlns="http://www.w3.org/2000/svg">
<circle cx="20" cy="20" r="20" fill="#43B38E"/>
<path fill-rule="evenodd" clip-rule="evenodd" d="M34.598 6.33087C34.5838 6.34911 34.57 6.36827 34.5566 6.38824C34.6083 6.65169 34.6354 6.92397 34.6354 7.20259C34.6354 8.68096 33.872 9.98104 32.718 10.7302C32.8728 11.4916 32.954 12.2797 32.954 13.0869C32.954 19.2631 28.1957 24.328 22.145 24.8156C22.6459 26.2873 23.5914 27.5533 24.8215 28.4536C27.6415 27.7631 30.5888 27.397 33.6216 27.397C34.5894 27.397 35.5486 27.4343 36.4977 27.5075C36.325 27.9267 36.1386 28.3387 35.9389 28.7431C27.1457 29.3753 19.2064 33.0907 13.1964 38.8137C11.7353 38.2854 10.3534 37.5917 9.07319 36.7553C12.7435 33.4786 17.0736 30.9253 21.8393 29.3194C20.5033 28.1625 19.5802 26.5414 19.3209 24.707C16.8186 24.3083 14.5794 23.1209 12.866 21.4075C8.97196 23.9599 6.39994 28.3629 6.39994 33.3667C6.39994 33.8248 6.4215 34.2778 6.46366 34.7249C4.00047 32.4597 2.10719 29.5843 1.02344 26.3385C3.30085 22.7721 6.71627 20.0027 10.7578 18.5423C10.4097 17.8782 10.1232 17.1767 9.9058 16.4454C10.0236 16.4478 10.1417 16.4489 10.2601 16.4489C17.5331 16.4489 23.7788 12.05 26.4816 5.76763C26.5118 5.68435 26.5446 5.60229 26.5799 5.52155C26.5966 5.48328 26.6139 5.4453 26.6317 5.40764C26.9765 4.67872 27.5249 4.06489 28.2033 3.63946C28.2546 3.60728 28.3067 3.57618 28.3595 3.54619C28.9713 3.19854 29.6789 3 30.4328 3C30.469 3 30.5051 3.00046 30.5411 3.00137C32.0365 3.93083 33.4003 5.05213 34.598 6.33087Z" fill="#FFCB67"/>
<path fill-rule="evenodd" clip-rule="evenodd" d="M30.3629 3.64922C30.9746 3.30157 31.6822 3.10303 32.4362 3.10303C33.8511 3.10303 35.1027 3.80223 35.8643 4.87396C36.1134 4.81509 36.3732 4.78394 36.6404 4.78394C37.0682 4.78394 37.4775 4.86387 37.8539 5.00961C37.9599 5.05066 38.0032 5.17571 37.9432 5.27229C37.6774 5.70014 37.287 6.04254 36.8228 6.24884C36.7212 6.294 36.6349 6.37995 36.5599 6.49127C36.6117 6.75472 36.6388 7.027 36.6388 7.30561C36.6388 8.78399 35.8754 10.0841 34.7214 10.8332C34.8761 11.5946 34.9574 12.3828 34.9574 13.1899C34.9574 19.3662 30.1991 24.4311 24.1484 24.9187C24.6493 26.3903 25.5948 27.6563 26.8248 28.5566C29.6448 27.8661 32.5921 27.5 35.625 27.5C36.5928 27.5 37.552 27.5373 38.5011 27.6105C38.3284 28.0297 38.142 28.4418 37.9422 28.8461C28.9471 29.4928 20.8455 33.366 14.7887 39.3143C13.2257 38.8936 11.7383 38.2882 10.3516 37.523C14.1717 33.9262 18.7593 31.1354 23.8427 29.4224C22.5067 28.2655 21.5836 26.6444 21.3242 24.81C18.822 24.4114 16.5828 23.2239 14.8694 21.5105C10.9753 24.0629 8.40332 28.4659 8.40332 33.4697C8.40332 34.4737 8.50687 35.4535 8.70387 36.399C7.89969 36.3007 7.08076 36.25 6.25 36.25C4.06895 36.25 1.96945 36.5991 0.00431646 37.2445C0.00144358 37.1073 0 36.9698 0 36.8319C0 28.4621 5.31903 21.3346 12.7612 18.6453C12.4131 17.9812 12.1266 17.2797 11.9092 16.5485C12.027 16.5508 12.1451 16.552 12.2634 16.552C19.5365 16.552 25.7821 12.153 28.485 5.87066C28.5152 5.78737 28.548 5.70531 28.5833 5.62458C28.6 5.58631 28.6173 5.54833 28.6351 5.51066C28.9799 4.78175 29.5282 4.16791 30.2067 3.74249C30.258 3.71031 30.3101 3.67921 30.3629 3.64922Z" fill="#004432"/>
<circle cx="34.1179" cy="5.62445" r="0.840517" fill="white"/>
<path fill-rule="evenodd" clip-rule="evenodd" d="M29.0657 9.50439C27.1541 14.6032 22.2354 18.2323 16.4692 18.2323C15.8692 18.2323 15.2784 18.193 14.6992 18.1168C16.2265 20.2238 18.7078 21.5942 21.5091 21.5942C26.1511 21.5942 29.9143 17.8311 29.9143 13.1891C29.9143 11.8674 29.6092 10.617 29.0657 9.50439Z" fill="white"/>
</svg>